<svg xmlns="http://www.w3.org/2000/svg" version="1.1" xmlns:xlink="http://www.w3.org/1999/xlink" width="376.00552" height="375.62161"><svg version="1.1" id="SvgjsSvg1011" width="376.00552" height="375.62161" viewBox="0 0 376.00553 375.62162" xmlns="http://www.w3.org/2000/svg" xmlns:svg="http://www.w3.org/2000/svg">
  <defs id="SvgjsDefs1010"></defs>
  <g id="SvgjsG1009" transform="translate(-0.72663967,-0.33333332)">
    <path style="fill:#000000" d="m 172,375.03857 c -49.44881,-7.14768 -90.244297,-46.55715 -97.000823,-93.70524 -0.236452,-1.65 -0.579782,-3.52994 -0.762954,-4.17765 l -0.333041,-1.17764 -17.438711,0.17764 -17.438711,0.17765 -7.437664,17.2345 c -8.237391,19.08763 -9.161399,20.66672 -13.153952,22.4796 C 9.7784936,319.97765 -0.86678461,312.16725 0.92627205,303.20196 1.3336589,301.16503 46.641505,195.86483 48.778419,191.98854 c 0.710946,-1.28963 2.378838,-3.08963 3.706428,-4 l 2.413799,-1.65521 16.855425,-0.19857 16.855426,-0.19857 2.19525,1.1123 c 3.072864,1.55696 4.480764,2.91316 5.889432,5.67316 l 1.218969,2.38832 0.262754,39.27835 0.262754,39.27834 1.460197,6.49592 c 8.304527,36.94403 36.586217,63.89677 73.601147,70.14265 l 2.5,0.42184 V 250.72702 150.72696 l -18.22001,-0.19681 -18.22,-0.19682 -2.51923,-1.92261 c -8.10069,-6.18223 -5.67734,-18.98665 4.10768,-21.70397 l 2.51822,-0.69932 16.16667,-0.004 L 176,126 V 100.65826 75.316518 l -3.5,-1.569223 C 161.67111,68.892173 153.61527,58.808243 150.92314,46.738373 l -1.09924,-4.928293 0.33871,-5.40504 0.3387,-5.405041 1.71287,-4.92056 c 4.02815,-11.57164 13.30559,-20.6658406 24.75813,-24.2691316 l 4.69435,-1.47697408 h 7 7 l 4.88505,1.60022938 c 15.39355,5.042571 25.60174,18.3821893 26.57963,34.7331033 l 0.3389,5.666666 -1.03901,4.414418 c -2.86908,12.189709 -10.69726,21.99701 -21.5979,27.05825 l -3.5,1.625074 V 100.71554 126 l 16.16666,0.004 16.16667,0.004 2.66447,0.7397 2.66446,0.73969 2.77201,2.77201 2.772,2.772 0.48251,3.2176 0.48251,3.2176 -0.77007,2.57027 c -0.977,3.26094 -3.41278,6.16757 -6.32756,7.55072 l -2.27517,1.07964 h -17.39925 -17.39924 v 99.72527 99.72526 l 2.83333,-0.47049 c 33.13853,-5.50278 61.89133,-33.59779 70.25394,-68.64671 l 1.11346,-4.66666 0.39963,-40.66667 0.39964,-40.66667 1.10714,-2 c 1.46304,-2.64289 4.44252,-5.41169 6.76959,-6.29092 l 1.87673,-0.70908 18.12327,0.01 18.12326,0.01 4.16905,0.98297 c 15.64602,3.68896 27.3159,16.72035 29.63052,33.08745 l 0.7358,5.20304 -0.78479,4.75207 c -0.43163,2.61363 -1.37329,6.42647 -2.09257,8.47296 -0.71929,2.0465 -1.23659,3.77115 -1.14957,3.83255 0.087,0.0614 1.80823,0.97468 3.8249,2.02948 2.01666,1.0548 5.80278,4.05525 8.4136,6.66767 l 4.74693,4.74984 2.44791,4.95302 2.44792,4.95301 1.00457,5.64812 1.00457,5.64811 -0.43009,4.46357 c -0.23655,2.45496 -1.25913,6.85778 -2.2724,9.78406 l -1.84232,5.32049 -3.15443,4.42054 c -5.47519,7.67278 -14.21055,13.40659 -23.36626,15.33739 l -4.66667,0.98413 -27.06357,0.0116 -27.06358,0.0116 -3.3861,5.5 c -15.79404,25.65399 -43.04685,44.45378 -73.77375,50.89129 -7.54786,2.0062 -24.05875,3.28868 -37.71299,1.31305 z m 170.06386,-83.39445 c 4.87879,-1.72133 8.27324,-5.66453 9.2148,-10.70447 l 0.5897,-3.15652 -0.84863,-3.27156 -0.84863,-3.27156 -2.25222,-2.36808 c -1.23872,-1.30245 -3.45222,-2.92486 -4.91889,-3.60537 l -2.66667,-1.23728 -19.41666,-0.0147 -19.41667,-0.0146 -0.41666,2.08334 c -0.22917,1.14583 -0.41667,3.36602 -0.41667,4.93375 0,2.43095 -1.76938,13.78566 -3.08793,19.81625 l -0.40084,1.83333 h 20.9939 20.9939 z M 73.333331,230.96347 v -20.36986 l -3.038915,0.20319 -3.038915,0.20319 -8.627751,19.95275 c -4.745263,10.97402 -8.627751,20.04902 -8.627751,20.16667 0,0.11765 5.25,0.21392 11.666666,0.21392 h 11.666666 z m 248.879099,7.30792 3.11662,-1.06194 2.62238,-2.97918 2.62238,-2.97918 0.72057,-3.35988 0.72056,-3.35989 -0.7255,-2.76566 c -0.39902,-1.52112 -1.4863,-3.88073 -2.41618,-5.24359 l -1.69068,-2.47793 -3.38886,-1.68874 -3.38885,-1.68874 h -9.53577 -9.53577 v 14.33333 14.33334 h 8.88124 8.88124 z M 195.0898,50.879869 c 1.41727,-0.731844 3.53333,-2.578236 4.70236,-4.103094 l 2.12549,-2.77247 0.45402,-3.027609 0.45402,-3.02761 -0.87334,-3.119241 -0.87333,-3.11924 -2.81367,-2.813673 -2.81367,-2.813673 -2.87974,-0.775434 c -5.63615,-1.517656 -11.38145,0.488598 -15.03077,5.248731 l -2.1255,2.77247 -0.45402,3.02761 -0.45401,3.027609 0.87333,3.119241 0.87333,3.119241 2.82344,2.823438 c 4.39774,4.397737 10.4323,5.314943 16.01206,2.433704 z" id="SvgjsPath1008"></path>
  </g>
</svg><style>@media (prefers-color-scheme: light) { :root { filter: none; } }
@media (prefers-color-scheme: dark) { :root { filter: none; } }
</style></svg>