<?xml version="1.0" encoding="UTF-8" standalone="no"?>
<!-- Created with Inkscape (http://www.inkscape.org/) -->

<svg
   width="34.933567mm"
   height="35.598679mm"
   viewBox="0 0 34.933567 35.598679"
   version="1.1"
   id="svg1"
   xml:space="preserve"
   inkscape:version="1.4 (e7c3feb100, 2024-10-09)"
   sodipodi:docname="logo.svg"
   xmlns:inkscape="http://www.inkscape.org/namespaces/inkscape"
   xmlns:sodipodi="http://sodipodi.sourceforge.net/DTD/sodipodi-0.dtd"
   xmlns="http://www.w3.org/2000/svg"
   xmlns:svg="http://www.w3.org/2000/svg"><sodipodi:namedview
     id="namedview1"
     pagecolor="#505050"
     bordercolor="#eeeeee"
     borderopacity="1"
     inkscape:showpageshadow="0"
     inkscape:pageopacity="0"
     inkscape:pagecheckerboard="0"
     inkscape:deskcolor="#d1d1d1"
     inkscape:document-units="mm"
     inkscape:zoom="3.2642518"
     inkscape:cx="174.92523"
     inkscape:cy="85.777696"
     inkscape:window-width="2560"
     inkscape:window-height="1440"
     inkscape:window-x="0"
     inkscape:window-y="0"
     inkscape:window-maximized="1"
     inkscape:current-layer="g1312" /><defs
     id="defs1" /><g
     inkscape:label="Layer 1"
     inkscape:groupmode="layer"
     id="layer1"
     transform="translate(-113.70352,-159.2229)"><g
       id="g1312"
       transform="matrix(0.05078842,0,0,0.06404386,18.054345,17.889679)"><path
         style="fill:#000000"
         d="m 1894.7304,2736.266 c 6.2938,-14.501 17.7992,-41.5434 25.5676,-60.0943 7.7683,-18.5508 20.0548,-46.5552 27.3033,-62.232 7.2484,-15.6767 14.788,-32.1373 16.7546,-36.5791 l 3.5756,-8.0759 h 26.1009 26.1009 l 10.5822,25.1779 c 5.8203,13.8478 10.848,25.7359 11.1728,26.418 l 0.5905,1.2403 1.7103,-0.7652 c 1.8008,-0.8057 13.2894,-10.8326 49.9294,-43.5768 12.2444,-10.9425 29.6315,-26.4364 38.6381,-34.4309 l 16.3755,-14.5355 v -1.8981 -1.898 l -3.7881,-1.6185 c -24.5868,-10.505 -56.1528,-31.5974 -70.3463,-47.0054 l -5.0503,-5.4824 -5.6351,3.6885 c -3.0993,2.0287 -7.352,4.4645 -9.4503,5.4129 l -3.8152,1.7244 -1.7019,-1.1201 c -9.7793,-6.4362 -11.572,-44.883 -3.1311,-67.1486 7.6257,-20.1151 11.6758,-23.6226 18.4041,-15.9385 8.4796,9.684 22.2571,22.316 39.2683,36.0033 l 16.6716,13.414 -3.0989,1.9331 c -1.7044,1.0632 -5.7883,2.4447 -9.0754,3.0701 l -5.9765,1.137 v 1.281 c 0,16.9335 92.5966,50.3318 100.0937,36.1025 l 1.743,-3.3082 v -70.8135 -70.8134 h -30.9729 -30.9728 l -4.0062,-2.141 c -2.2034,-1.1775 -5.0485,-3.5563 -6.3224,-5.2861 l -2.3162,-3.145 0.1368,-4.8154 0.1368,-4.8154 2.1146,-2.8632 c 1.1631,-1.5748 3.6354,-3.763 5.494,-4.8628 l 3.3792,-1.9995 31.9641,-0.4751 31.964,-0.475 0.3404,-9.6609 0.3403,-9.661 -9.0878,-5.424 c -13.8922,-8.2915 -21.9675,-17.9856 -24.7098,-29.6631 l -1.2794,-5.4477 0.7642,-5.9865 c 3.039,-23.8071 28.2481,-41.94 58.366,-41.9827 l 7.9609,-0.011 7.7938,1.909 c 20.4007,4.9969 36.6041,19.7247 40.6412,36.94 l 1.3652,5.8215 -1.4309,7.3555 c -2.471,12.703 -10.7799,23.1475 -24.3727,30.6373 -4.1636,2.2942 -7.9663,4.6213 -8.4504,5.1714 -1.0611,1.2058 -1.2175,16.8504 -0.1897,18.9746 l 0.7273,1.5028 h 31.4437 31.4437 l 4.0709,2.1454 c 2.239,1.18 5.3188,4.066 6.844,6.4133 l 2.773,4.2678 -0.5283,4.0319 -0.5284,4.0319 -3.3012,3.4322 c -1.8156,1.8877 -5.0997,4.0282 -7.298,4.7566 l -3.9968,1.3244 h -31.1886 -31.1885 v 69.6315 69.6315 l 2.6957,4.1791 c 1.4826,2.2985 3.5927,4.6083 4.6891,5.1329 l 1.9935,0.9538 12.3835,-1.9542 c 15.2797,-2.4113 30.9513,-7.0332 44.7377,-13.1942 l 10.4969,-4.6909 10.7011,-8.0052 c 10.1954,-7.627 15.1816,-12.7792 13.2362,-13.6769 -0.4918,-0.227 -3.9236,-1.102 -7.6264,-1.9446 -3.7027,-0.8425 -7.3908,-2.1612 -8.1957,-2.9304 l -1.4636,-1.3985 14.0676,-11.2 c 15.6127,-12.4301 27.2636,-23.1627 38.7173,-35.6653 9.3347,-10.1896 8.685,-10.2099 15.1692,0.4751 14.6195,24.0907 16.6941,69.2128 3.6903,80.2637 l -1.3736,1.1673 -3.4048,-1.4009 c -1.8726,-0.7704 -5.9833,-3.1128 -9.1347,-5.2052 -7.2836,-4.836 -6.9212,-4.8945 -13.4659,2.1741 -11.1439,12.0359 -31.8557,26.1335 -58.705,39.9575 -18.4373,9.493 -19.1865,6.9437 9.1006,30.965 6.4986,5.5185 22.9125,19.9742 36.4753,32.1237 29.4061,26.3419 26.589,25.7631 26.589,5.4631 V 2569.76 l 51.8169,0.012 51.8168,0.012 10.9944,1.7993 10.9943,1.7993 8.4143,3.5065 8.4143,3.5064 7.2267,5.6779 7.2267,5.6779 4.2096,6.8184 4.2096,6.8184 1.2215,7.0119 1.2214,7.012 -1.2104,7.7147 -1.2103,7.7147 -3.8116,6.1585 c -4.4107,7.1264 -12.4668,14.347 -19.8202,17.7644 -6.3529,2.9525 -6.5902,2.4353 2.6995,5.8827 l 7.8325,2.9067 7.1901,5.4387 7.1902,5.4388 4.154,6.7083 c 2.2848,3.6896 4.7476,9.2736 5.4731,12.4089 l 1.319,5.7007 -0.7893,7.8322 c -1.3985,13.8762 -7.6961,24.2166 -20.8626,34.2555 l -6.6018,5.0335 -10.8617,4.2649 -10.8617,4.2648 -11.3817,1.8529 -11.3818,1.8529 -52.848,0.012 -52.8481,0.012 0.6033,-59.6967 0.6032,-59.6967 -8.8572,-7.9201 c -4.8714,-4.356 -10.7412,-9.6655 -13.0439,-11.7988 -5.7335,-5.3118 -59.404,-53.1557 -77.6259,-69.1987 -16.918,-14.895 -15.1967,-14.2034 -23.3702,-9.3902 -26.2259,13.1059 -34.3856,24.1025 -40.2992,25.7437 -8.8307,2.4508 -20.2225,-19.2006 -52.6929,-28.9693 -1.397,0.3516 -5.8516,3.7081 -9.899,7.4589 -14.3866,13.3323 -47.0159,42.6076 -58.445,52.4376 -3.6536,3.1424 -11.2256,9.9444 -16.8266,15.1155 -5.601,5.1711 -15.498,14.1438 -21.9932,19.9394 -6.4952,5.7955 -12.3409,11.4358 -12.9905,12.5338 l -1.1809,1.9964 12.8271,29.8322 c 7.055,16.4077 17.8877,41.1016 24.0727,54.8754 6.1851,13.7738 11.2456,25.433 11.2456,25.9093 v 0.8661 l -25.3394,-0.2565 -25.3395,-0.2564 -1.5262,-3.3254 c -0.8394,-1.8289 -5.293,-11.6625 -9.8968,-21.8524 l -8.3705,-18.5271 h -41.0356 -41.0356 l -5.1778,12.3514 c -2.8478,6.7933 -7.1323,16.7337 -9.5212,22.09 l -4.3433,9.7386 h -24.9651 -24.9651 z m 606.6367,-9.8243 c 8.8783,-3.3157 13.6078,-6.6628 16.6377,-11.7743 l 2.5316,-4.2711 v -5.5406 -5.5407 l -3.2947,-5.1584 -3.2948,-5.1584 -6.2443,-2.9494 c -3.4344,-1.6222 -9.32,-3.4393 -13.0791,-4.038 l -6.8349,-1.0885 h -23.0537 -23.0537 l -0.1571,24.3072 -0.157,24.3072 26.7053,-0.317 26.7053,-0.317 z m -485.2996,-47.6572 c -1.2089,-2.7434 -7.1522,-17.1731 -13.2075,-32.0661 -6.0553,-14.8929 -11.2754,-26.4809 -11.6003,-25.7511 -1.2208,2.7423 -25.4336,62.2748 -25.4336,62.5342 0,0.1491 11.7988,0.2711 26.2196,0.2711 h 26.2196 z m 482.9035,-35.2705 c 5.8577,-2.4703 9.4408,-5.2387 12.0973,-9.3466 l 2.2796,-3.5251 v -5.9136 -5.9135 l -2.4803,-4.0632 -2.4803,-4.0632 -6.8048,-2.65 -6.8048,-2.65 -26.0582,-0.3179 -26.0582,-0.3178 v 20.5879 20.588 l 26.0582,-0.3233 26.0582,-0.3233 z m -258.8488,-374.8492 c 2.2712,-0.9063 5.7513,-3.2369 7.7336,-5.1792 l 3.6041,-3.5313 0.4802,-5.9812 0.4803,-5.9811 -2.5119,-3.9046 c -3.0638,-4.7625 -8.6079,-8.2285 -15.4827,-9.6792 l -5.1612,-1.0891 -6.238,1.4381 -6.238,1.4381 -3.8156,3.1263 c -12.7959,10.4845 -8.3537,25.5512 9.0559,30.7151 l 4.3792,1.2989 4.7923,-0.5115 c 2.6358,-0.2814 6.6506,-1.253 8.9218,-2.1593 z"
         id="path1"
         sodipodi:nodetypes="sssscccsscssscccsscsscsssscsscsscccccsscccsscccccsscsscsscsssscccsscccsscccccsscsscsssscsssscssssssscccccccccccccccssscccsscsscccccccccssssssssssscssscccsscccsscccssscccccsscccccccsssssscssscccccccccccccssscccsscccsscss" /></g></g></svg>
