<?xml version="1.0" encoding="UTF-8" standalone="no"?>
<!-- Created with Inkscape (http://www.inkscape.org/) -->

<svg
   version="1.1"
   id="svg1"
   width="394"
   height="394"
   viewBox="0 0 394.00001 394.00001"
   sodipodi:docname="logo.svg"
   inkscape:version="1.4.2 (ebf0e940, 2025-05-08)"
   xmlns:inkscape="http://www.inkscape.org/namespaces/inkscape"
   xmlns:sodipodi="http://sodipodi.sourceforge.net/DTD/sodipodi-0.dtd"
   xmlns="http://www.w3.org/2000/svg"
   xmlns:svg="http://www.w3.org/2000/svg">
  <sodipodi:namedview
     id="namedview1"
     pagecolor="#ffffff"
     bordercolor="#000000"
     borderopacity="0.25"
     inkscape:showpageshadow="2"
     inkscape:pageopacity="0.0"
     inkscape:pagecheckerboard="0"
     inkscape:deskcolor="#d1d1d1"
     inkscape:zoom="2.1116751"
     inkscape:cx="197"
     inkscape:cy="197"
     inkscape:window-width="2560"
     inkscape:window-height="1307"
     inkscape:window-x="1512"
     inkscape:window-y="30"
     inkscape:window-maximized="0"
     inkscape:current-layer="svg1" />
  <defs
     id="defs1" />
  <g
     id="g1"
     transform="matrix(-0.9999962,0,0,1,394.72589,-0.33333332)">
    <path
       style="fill:#000000"
       d="m 214.45604,384.34226 c 49.44881,-7.14768 90.2443,-46.55715 97.00082,-93.70524 0.23645,-1.65 0.57978,-3.52994 0.76296,-4.17765 l 0.33304,-1.17764 17.43871,0.17764 17.43871,0.17765 7.43766,17.2345 c 8.23739,19.08763 9.1614,20.66672 13.15396,22.4796 8.65565,3.93022 19.30092,-3.88018 17.50787,-12.84547 -0.40739,-2.03693 -45.71524,-107.33713 -47.85215,-111.21342 -0.71095,-1.28963 -2.37884,-3.08963 -3.70643,-4 l -2.4138,-1.65521 -16.85542,-0.19857 -16.85543,-0.19857 -2.19525,1.1123 c -3.07286,1.55696 -4.48076,2.91316 -5.88943,5.67316 l -1.21897,2.38832 -0.26275,39.27835 -0.26276,39.27834 -1.46019,6.49592 c -8.30453,36.94403 -36.58622,63.89677 -73.60115,70.14265 l -2.5,0.42184 V 260.03071 160.03065 l 18.22001,-0.19681 18.22,-0.19682 2.51923,-1.92261 c 8.10069,-6.18223 5.67734,-18.98665 -4.10768,-21.70397 l -2.51822,-0.69932 -16.16667,-0.004 -16.16667,-0.003 V 109.96195 84.620207 l 3.5,-1.569223 c 21.78427,-9.86096 24.83883,-34.588442 20.28582,-47.667856 -4.02815,-11.57164 -13.30559,-20.66584 -24.75813,-24.269131 -4.6183,-1.4530486 -13.45623,-3.1928602 -23.5794,0.123255 -22.63694,7.415338 -29.29945,30.284082 -25.87952,44.814187 2.86908,12.189709 10.69726,21.99701 21.5979,27.05825 l 3.5,1.625074 v 25.284467 25.28446 l -16.16666,0.004 -16.16667,0.004 -2.66447,0.7397 -2.66446,0.73969 -2.77201,2.77201 -2.772,2.772 -0.48251,3.2176 -0.48251,3.2176 0.77007,2.57027 c 0.977,3.26094 3.41278,6.16757 6.32756,7.55072 l 2.27517,1.07964 h 17.39925 17.39924 v 99.72527 99.72526 l -2.83333,-0.47049 c -33.13853,-5.50278 -61.89133,-33.59779 -70.25394,-68.64671 l -1.11346,-4.66666 -0.39963,-40.66667 -0.39964,-40.66667 -1.10714,-2 c -1.46304,-2.64289 -4.44252,-5.41169 -6.76959,-6.29092 l -1.87673,-0.70908 -18.123271,0.01 -18.12326,0.01 -4.16905,0.98297 c -15.64602,3.68896 -27.3159,16.72035 -29.63052,33.08745 l -0.7358,5.20304 0.78479,4.75207 c 0.43163,2.61363 1.37329,6.42647 2.09257,8.47296 0.71929,2.0465 1.23659,3.77115 1.14957,3.83255 -0.087,0.0614 -1.80823,0.97468 -3.8249,2.02948 -2.01666,1.0548 -5.80278,4.05525 -8.4136,6.66767 l -4.74693,4.74984 -2.44791,4.95302 -2.44792,4.95301 -1.00457,5.64812 -1.0045704,5.64811 0.4300904,4.46357 c 0.23655,2.45496 1.25913,6.85778 2.2724,9.78406 l 1.84232,5.32049 3.15443,4.42054 c 5.47519,7.67278 14.21055,13.40659 23.36626,15.33739 l 4.66667,0.98413 27.06357,0.0116 27.06358,0.0116 3.386101,5.5 c 15.79404,25.65399 43.04685,44.45378 73.77375,50.89129 7.54786,2.0062 24.05875,3.28868 37.71299,1.31305 z M 44.392179,300.94781 c -4.87879,-1.72133 -8.27324,-5.66453 -9.2148,-10.70447 l -0.5897,-3.15652 0.84863,-3.27156 0.84863,-3.27156 2.25222,-2.36808 c 1.23872,-1.30245 3.45222,-2.92486 4.91889,-3.60537 l 2.66667,-1.23728 19.41666,-0.0147 19.41667,-0.0146 0.41666,2.08334 c 0.22917,1.14583 0.41667,3.36602 0.41667,4.93375 0,2.43095 1.76938,13.78566 3.08793,19.81625 l 0.40084,1.83333 h -20.9939 -20.9939 z M 313.12271,240.26716 V 219.8973 l 3.03891,0.20319 3.03892,0.20319 8.62775,19.95275 c 4.74526,10.97402 8.62775,20.04902 8.62775,20.16667 0,0.11765 -5.25,0.21392 -11.66667,0.21392 h -11.66666 z m -248.879101,7.30792 -3.11662,-1.06194 -2.62238,-2.97918 -2.62238,-2.97918 -0.72057,-3.35988 -0.72056,-3.35989 0.7255,-2.76566 c 0.39902,-1.52112 1.4863,-3.88073 2.41618,-5.24359 l 1.69068,-2.47793 3.38886,-1.68874 3.38885,-1.68874 h 9.53577 9.53577 v 14.33333 14.33334 h -8.88124 -8.88124 z M 186.66388,56.080464 c -1.49839,-1.768723 -2.02507,-3.625353 -2.57951,-5.800079 -0.27331,-4.69863 0.54152,-8.853305 3.8992,-12.252397 2.36036,-1.80658 3.36878,-2.734734 5.90057,-3.416474 5.63615,-1.517656 11.38145,0.488598 15.03077,5.248731 0.59909,0.580775 7.25177,9.101275 -1.53657,17.889609 -6.66586,6.665856 -15.96758,4.522282 -20.71442,-1.66939 z"
       id="path1" />
  </g>
</svg>
